<?xml version="1.0" encoding="UTF-8" standalone="no"?>
<!-- Created with Inkscape (http://www.inkscape.org/) -->

<svg
   width="2560px"
   height="1440px"
   viewBox="0 0 2560 1440"
   version="1.1"
   id="SVGRoot"
   sodipodi:docname="nix-background.svg"
   xml:space="preserve"
   inkscape:export-filename="nix-background.png"
   inkscape:export-xdpi="96"
   inkscape:export-ydpi="96"
   inkscape:version="1.2.1 (9c6d41e410, 2022-07-14)"
   xmlns:inkscape="http://www.inkscape.org/namespaces/inkscape"
   xmlns:sodipodi="http://sodipodi.sourceforge.net/DTD/sodipodi-0.dtd"
   xmlns="http://www.w3.org/2000/svg"
   xmlns:svg="http://www.w3.org/2000/svg"><sodipodi:namedview
     id="namedview605"
     pagecolor="#ffffff"
     bordercolor="#000000"
     borderopacity="0.25"
     inkscape:showpageshadow="2"
     inkscape:pageopacity="0.0"
     inkscape:pagecheckerboard="0"
     inkscape:deskcolor="#d1d1d1"
     inkscape:document-units="px"
     showgrid="false"
     inkscape:zoom="0.52850801"
     inkscape:cx="1220.4167"
     inkscape:cy="350.042"
     inkscape:window-width="1260"
     inkscape:window-height="676"
     inkscape:window-x="0"
     inkscape:window-y="0"
     inkscape:window-maximized="1"
     inkscape:current-layer="layer1" /><defs
     id="defs600" /><g
     inkscape:label="Layer 1"
     inkscape:groupmode="layer"
     id="layer1"><rect
       style="fill:#1a1b26;stroke-width:1781.52;fill-opacity:1"
       id="rect1643"
       width="2560.0015"
       height="1439.9391"
       x="0.0021625534"
       y="0.062061086" /><g
       inkscape:label="Layer 1"
       id="layer1-6"
       transform="matrix(1.627508,0,0,1.627508,1094.2098,211.36622)"
       style="opacity:1;fill:#ffe8e7;fill-opacity:1;stroke-width:1.12319;stroke-dasharray:none"><path
         style="display:inline;fill:#ffe8e7;fill-opacity:1;stroke:none;stroke-width:1.12319;stroke-dasharray:none"
         d="m 181.02098,160.84269 3.93352,6.82101 -4.01773,6.97652 -26.27747,-0.0829 -9.44333,16.28078 -15.90693,0.0424 34.49299,-59.73484 8.05236,13.65151 -9.29491,15.99588 z"
         id="path5735" /><path
         style="display:inline;fill:#ffe8e7;fill-opacity:1;stroke:none;stroke-width:1.12319;stroke-dasharray:none"
         d="m 74.747308,113.22551 3.940412,-6.81704 8.050705,-0.009 13.066915,22.79842 18.82123,0.0378 7.99021,13.75459 -68.978388,-0.004 7.796372,-13.79931 18.500294,0.0517 z"
         id="path5735-3" /><path
         style="display:inline;fill:#ffe8e7;fill-opacity:1;stroke:none;stroke-width:1.12319;stroke-dasharray:none"
         d="m 86.719302,229.11752 -7.873933,-0.004 -4.032978,-6.96771 13.210555,-22.71549 -9.377901,-16.31855 7.916726,-13.79702 34.485399,59.73922 -15.84874,0.1478 -9.205376,-16.04757 z"
         id="path5735-3-6" /><path
         style="display:inline;fill:#ffe8e7;fill-opacity:1;stroke:none;stroke-width:1.12319;stroke-dasharray:none"
         d="m 92.708907,144.67396 c -3.160573,0.009 -6.321126,0.0239 -9.481696,0.0356 -3.164953,5.46457 -6.330056,10.92904 -9.495299,16.39344 -8.819674,-0.0481 -17.639352,-0.0962 -26.459023,-0.14426 -1.292214,2.35586 -2.80587,4.60578 -3.914868,7.05353 0.545101,1.23895 1.374391,2.41398 2.023403,3.62989 0.595842,1.0345 1.191684,2.06899 1.787525,3.10349 6.190796,0.0315 12.387883,-0.0764 18.574626,0.0965 -3.016552,5.40209 -6.251237,10.69838 -9.244494,16.10351 2.590332,4.51653 5.254205,9.03529 7.933439,13.47287 1.043974,-1.4383 1.824824,-3.09525 2.766097,-4.61762 10.609851,-18.35479 21.265242,-36.724 31.809363,-55.09134 -2.098534,-0.0579 -4.199737,-0.0308 -6.299073,-0.0356 z"
         id="path6004" /><path
         style="display:inline;fill:#ffe8e7;fill-opacity:1;stroke:none;stroke-width:1.12319;stroke-dasharray:none"
         d="m 144.98888,160.77499 c 1.5723,-2.74175 3.13984,-5.48622 4.71003,-8.22918 -3.14998,-5.47322 -6.2998,-10.94651 -9.44949,-16.41989 4.45149,-7.61402 8.90297,-15.22804 13.35444,-22.84206 -1.39412,-2.29702 -2.58578,-4.73284 -4.15109,-6.91714 -1.34552,-0.14741 -2.77777,-0.0167 -4.15528,-0.0626 -1.19383,-10e-4 -2.38765,-0.003 -3.58147,-0.004 -3.12264,5.34566 -6.12775,10.76644 -9.37087,16.03785 -3.17007,-5.31345 -6.13946,-10.76292 -9.32381,-16.05772 -5.20659,-0.015 -10.45189,0.0326 -15.63456,0.13413 0.72362,1.62326 1.76815,3.12796 2.61592,4.70431 10.5908,18.3658 21.1713,36.77824 31.80582,55.09339 1.09944,-1.78842 2.12655,-3.62168 3.18036,-5.43736 z"
         id="path6004-1" /><path
         style="display:inline;fill:#ffe8e7;fill-opacity:1;stroke:none;stroke-width:1.12319;stroke-dasharray:none"
         d="m 104.75963,197.91793 c 1.58828,2.73252 3.18129,5.46229 4.77167,8.19359 6.31493,0.009 12.62986,0.0175 18.94479,0.0264 4.36819,7.66211 8.73638,15.32422 13.10458,22.98632 2.68634,-0.0588 5.39165,0.12706 8.06596,-0.13639 0.80042,-1.09155 1.40338,-2.39725 2.13188,-3.56726 0.59789,-1.03332 1.19602,-2.06649 1.79393,-3.09979 -3.06815,-5.37712 -6.26013,-10.69001 -9.20374,-16.13435 6.18661,-0.0886 12.39068,0.0645 18.56829,-0.0458 2.61625,-4.50156 5.19768,-9.06792 7.70112,-13.60699 -1.76759,-0.18495 -3.59297,-0.0327 -5.38202,-0.0867 -21.20064,-0.011 -42.43653,-0.0542 -63.61518,-0.002 0.9991,1.84635 2.07319,3.65248 3.11871,5.47296 z"
         id="path6004-1-2" /></g></g></svg>
